# xmcd
#
# Track frame offsets:
#	150
#	15532
#	30730
#	48776
#	65159
#	79394
#	101993
#	116338
#	127115
#	145738
#	160881
#	176283
#
# Disc length: 2621 seconds
# Revision: 0
# Processed by: cddbd v1.5.2PL0 Copyright (c) Steve Scherf et al.
# Submitted via: dBpowerAMP V12.0
#
DISCID=a00a3b0c
DTITLE=THIRD COAST KINGS - Third Coast Kings
DYEAR=1900
DGENRE=R&B
TTITLE0=Come On
TTITLE1=Give Me Your Love
TTITLE2=Cop It Proper
TTITLE3=Emcee Marie
TTITLE4=Crush It
TTITLE5=Tonic Stride
TTITLE6=Roughneck
TTITLE7=Gold Brick
TTITLE8=Spicy Brown
TTITLE9=On The Reel
TTITLE10=Case Quarter
TTITLE11=Summalove
EXTD=
EXTT0=
EXTT1=
EXTT2=
EXTT3=
EXTT4=
EXTT5=
EXTT6=
EXTT7=
EXTT8=
EXTT9=
EXTT10=
EXTT11=
PLAYORDER=
